<?xml version="1.0" encoding="UTF-8" standalone="no"?>
<!-- Created with Inkscape (http://www.inkscape.org/) -->

<svg
   xmlns:svg="http://www.w3.org/2000/svg"
   xmlns="http://www.w3.org/2000/svg"
   xmlns:xlink="http://www.w3.org/1999/xlink"
   version="1.1"
   width="64"
   height="16"
   id="svg5899"
   style="display:inline">
  <defs
     id="defs5901">
    <linearGradient
       id="linearGradient6117">
      <stop
         id="stop6119"
         style="stop-color:#ffbfe0;stop-opacity:1"
         offset="0" />
      <stop
         id="stop6121"
         style="stop-color:#ff1e06;stop-opacity:1"
         offset="1" />
    </linearGradient>
    <linearGradient
       id="linearGradient6111">
      <stop
         id="stop6113"
         style="stop-color:#f7fa00;stop-opacity:1"
         offset="0" />
      <stop
         id="stop6115"
         style="stop-color:#ff7a02;stop-opacity:1"
         offset="1" />
    </linearGradient>
    <linearGradient
       id="linearGradient6505">
      <stop
         id="stop6507"
         style="stop-color:#ffffff;stop-opacity:1"
         offset="0" />
      <stop
         id="stop6509"
         style="stop-color:#c8c8c8;stop-opacity:1"
         offset="1" />
    </linearGradient>
    <linearGradient
       x1="2"
       y1="1.980755"
       x2="14.215727"
       y2="14.057038"
       id="linearGradient6511"
       xlink:href="#linearGradient6505"
       gradientUnits="userSpaceOnUse"
       gradientTransform="matrix(0.83627663,0,0,1,0.32744675,0)" />
    <linearGradient
       x1="16.349319"
       y1="1.980755"
       x2="1.9999996"
       y2="14.051512"
       id="linearGradient6596"
       xlink:href="#linearGradient6505"
       gradientUnits="userSpaceOnUse"
       gradientTransform="matrix(-0.83627663,0,0,1,15.672553,0)" />
    <linearGradient
       x1="2"
       y1="8"
       x2="6.5"
       y2="8"
       id="linearGradient6784"
       xlink:href="#linearGradient6505"
       gradientUnits="userSpaceOnUse" />
    <linearGradient
       x1="2"
       y1="2"
       x2="14"
       y2="14"
       id="linearGradient6787"
       xlink:href="#linearGradient6505"
       gradientUnits="userSpaceOnUse" />
    <linearGradient
       x1="2"
       y1="2"
       x2="14"
       y2="14"
       id="linearGradient6099"
       xlink:href="#linearGradient6111"
       gradientUnits="userSpaceOnUse"
       gradientTransform="translate(16,0)" />
    <linearGradient
       x1="2"
       y1="2"
       x2="14"
       y2="14"
       id="linearGradient6105"
       xlink:href="#linearGradient6117"
       gradientUnits="userSpaceOnUse"
       gradientTransform="translate(32,0)" />
  </defs>
  <g
     id="layer4"
     style="display:inline">
    <path
       d="M 3,2 C 2.446,2 2,2.446 2,3 l 0,10 c 0,0.554 0.446,1 1,1 l 2.5,0 c 0.554,0 1,-0.446 1,-1 L 6.5,3 C 6.5,2.446 6.054,2 5.5,2 L 3,2 z m 7.5,0 c -0.554,0 -1,0.446 -1,1 l 0,10 c 0,0.554 0.446,1 1,1 l 2.5,0 c 0.554,0 1,-0.446 1,-1 L 14,3 C 14,2.446 13.554,2 13,2 l -2.5,0 z"
       id="rect6754"
       style="color:#000000;fill:url(#linearGradient6787);fill-opacity:1;fill-rule:nonzero;stroke:none;stroke-width:0.5;marker:none;visibility:visible;display:inline;overflow:visible;enable-background:accumulate" />
    <path
       d="m 19,2 c -0.554,0 -1,0.446 -1,1 l 0,10 c 0,0.554 0.446,1 1,1 l 2.5,0 c 0.554,0 1,-0.446 1,-1 l 0,-10 c 0,-0.554 -0.446,-1 -1,-1 L 19,2 z m 7.5,0 c -0.554,0 -1,0.446 -1,1 l 0,10 c 0,0.554 0.446,1 1,1 l 2.5,0 c 0.554,0 1,-0.446 1,-1 L 30,3 C 30,2.446 29.554,2 29,2 l -2.5,0 z"
       id="path6095"
       style="color:#000000;fill:url(#linearGradient6099);fill-opacity:1;fill-rule:nonzero;stroke:none;stroke-width:0.5;marker:none;visibility:visible;display:inline;overflow:visible;enable-background:accumulate" />
    <path
       d="m 35,2 c -0.554,0 -1,0.446 -1,1 l 0,10 c 0,0.554 0.446,1 1,1 l 2.5,0 c 0.554,0 1,-0.446 1,-1 l 0,-10 c 0,-0.554 -0.446,-1 -1,-1 L 35,2 z m 7.5,0 c -0.554,0 -1,0.446 -1,1 l 0,10 c 0,0.554 0.446,1 1,1 l 2.5,0 c 0.554,0 1,-0.446 1,-1 L 46,3 C 46,2.446 45.554,2 45,2 l -2.5,0 z"
       id="path6101"
       style="color:#000000;fill:url(#linearGradient6105);fill-opacity:1;fill-rule:nonzero;stroke:none;stroke-width:0.5;marker:none;visibility:visible;display:inline;overflow:visible;enable-background:accumulate" />
    <path
       d="m 51,2 c -0.554,0 -1,0.446 -1,1 l 0,10 c 0,0.554 0.446,1 1,1 l 2.5,0 c 0.554,0 1,-0.446 1,-1 l 0,-10 c 0,-0.554 -0.446,-1 -1,-1 L 51,2 z m 7.5,0 c -0.554,0 -1,0.446 -1,1 l 0,10 c 0,0.554 0.446,1 1,1 l 2.5,0 c 0.554,0 1,-0.446 1,-1 L 62,3 C 62,2.446 61.554,2 61,2 l -2.5,0 z"
       id="path6107"
       style="opacity:0.6;color:#000000;fill:#878787;fill-opacity:1;fill-rule:nonzero;stroke:none;stroke-width:0.5;marker:none;visibility:visible;display:inline;overflow:visible;enable-background:accumulate" />
  </g>
  <g
     id="layer6">
    <path
       d="M 3,1.75 C 2.3118243,1.75 1.75,2.3118243 1.75,3 l 0,10 c 0,0.688176 0.5618243,1.25 1.25,1.25 l 2.5,0 c 0.6881757,0 1.25,-0.561824 1.25,-1.25 l 0,-10 C 6.75,2.3118243 6.1881757,1.75 5.5,1.75 l -2.5,0 z m 7.5,0 C 9.8118243,1.75 9.25,2.3118243 9.25,3 l 0,10 c 0,0.688176 0.5618243,1.25 1.25,1.25 l 2.5,0 c 0.688176,0 1.25,-0.561824 1.25,-1.25 l 0,-10 C 14.25,2.3118243 13.688176,1.75 13,1.75 l -2.5,0 z M 3,2 5.5,2 c 0.554,0 1,0.446 1,1 l 0,10 c 0,0.554 -0.446,1 -1,1 L 3,14 C 2.446,14 2,13.554 2,13 L 2,3 C 2,2.446 2.446,2 3,2 z m 7.5,0 2.5,0 c 0.554,0 1,0.446 1,1 l 0,10 c 0,0.554 -0.446,1 -1,1 l -2.5,0 c -0.554,0 -1,-0.446 -1,-1 l 0,-10 c 0,-0.554 0.446,-1 1,-1 z"
       id="path5570"
       style="font-size:medium;font-style:normal;font-variant:normal;font-weight:normal;font-stretch:normal;text-indent:0;text-align:start;text-decoration:none;line-height:normal;letter-spacing:normal;word-spacing:normal;text-transform:none;direction:ltr;block-progression:tb;writing-mode:lr-tb;text-anchor:start;opacity:0.4;color:#000000;fill:#000000;fill-opacity:1;fill-rule:nonzero;stroke:none;stroke-width:0.5;marker:none;visibility:visible;display:inline;overflow:visible;enable-background:accumulate;font-family:AlArabiya;-inkscape-font-specification:AlArabiya" />
    <path
       d="m 19,1.75 c -0.688176,0 -1.25,0.5618243 -1.25,1.25 l 0,10 c 0,0.688176 0.561824,1.25 1.25,1.25 l 2.5,0 c 0.688176,0 1.25,-0.561824 1.25,-1.25 l 0,-10 c 0,-0.6881757 -0.561824,-1.25 -1.25,-1.25 l -2.5,0 z m 7.5,0 c -0.688176,0 -1.25,0.5618243 -1.25,1.25 l 0,10 c 0,0.688176 0.561824,1.25 1.25,1.25 l 2.5,0 c 0.688176,0 1.25,-0.561824 1.25,-1.25 l 0,-10 C 30.25,2.3118243 29.688176,1.75 29,1.75 l -2.5,0 z M 19,2 21.5,2 c 0.554,0 1,0.446 1,1 l 0,10 c 0,0.554 -0.446,1 -1,1 L 19,14 c -0.554,0 -1,-0.446 -1,-1 L 18,3 c 0,-0.554 0.446,-1 1,-1 z m 7.5,0 2.5,0 c 0.554,0 1,0.446 1,1 l 0,10 c 0,0.554 -0.446,1 -1,1 l -2.5,0 c -0.554,0 -1,-0.446 -1,-1 l 0,-10 c 0,-0.554 0.446,-1 1,-1 z"
       id="path6097"
       style="font-size:medium;font-style:normal;font-variant:normal;font-weight:normal;font-stretch:normal;text-indent:0;text-align:start;text-decoration:none;line-height:normal;letter-spacing:normal;word-spacing:normal;text-transform:none;direction:ltr;block-progression:tb;writing-mode:lr-tb;text-anchor:start;opacity:0.6;color:#000000;fill:#f35b00;fill-opacity:1;fill-rule:nonzero;stroke:none;stroke-width:0.5;marker:none;visibility:visible;display:inline;overflow:visible;enable-background:accumulate;font-family:AlArabiya;-inkscape-font-specification:AlArabiya" />
    <path
       d="m 35,1.75 c -0.688176,0 -1.25,0.5618243 -1.25,1.25 l 0,10 c 0,0.688176 0.561824,1.25 1.25,1.25 l 2.5,0 c 0.688176,0 1.25,-0.561824 1.25,-1.25 l 0,-10 c 0,-0.6881757 -0.561824,-1.25 -1.25,-1.25 l -2.5,0 z m 7.5,0 c -0.688176,0 -1.25,0.5618243 -1.25,1.25 l 0,10 c 0,0.688176 0.561824,1.25 1.25,1.25 l 2.5,0 c 0.688176,0 1.25,-0.561824 1.25,-1.25 l 0,-10 C 46.25,2.3118243 45.688176,1.75 45,1.75 l -2.5,0 z M 35,2 37.5,2 c 0.554,0 1,0.446 1,1 l 0,10 c 0,0.554 -0.446,1 -1,1 L 35,14 c -0.554,0 -1,-0.446 -1,-1 L 34,3 c 0,-0.554 0.446,-1 1,-1 z m 7.5,0 2.5,0 c 0.554,0 1,0.446 1,1 l 0,10 c 0,0.554 -0.446,1 -1,1 l -2.5,0 c -0.554,0 -1,-0.446 -1,-1 l 0,-10 c 0,-0.554 0.446,-1 1,-1 z"
       id="path6103"
       style="font-size:medium;font-style:normal;font-variant:normal;font-weight:normal;font-stretch:normal;text-indent:0;text-align:start;text-decoration:none;line-height:normal;letter-spacing:normal;word-spacing:normal;text-transform:none;direction:ltr;block-progression:tb;writing-mode:lr-tb;text-anchor:start;opacity:0.6;color:#000000;fill:#c50000;fill-opacity:1;fill-rule:nonzero;stroke:none;stroke-width:0.5;marker:none;visibility:visible;display:inline;overflow:visible;enable-background:accumulate;font-family:AlArabiya;-inkscape-font-specification:AlArabiya" />
  </g>
</svg>
