<?xml version="1.0" encoding="UTF-8" standalone="no"?>
<!-- Created with Inkscape (http://www.inkscape.org/) -->

<svg
   xmlns:svg="http://www.w3.org/2000/svg"
   xmlns="http://www.w3.org/2000/svg"
   xmlns:xlink="http://www.w3.org/1999/xlink"
   version="1.1"
   width="64"
   height="16"
   id="svg5899"
   style="display:inline">
  <defs
     id="defs5901">
    <linearGradient
       id="linearGradient8317">
      <stop
         id="stop8319"
         style="stop-color:#ffbfe0;stop-opacity:1"
         offset="0" />
      <stop
         id="stop8321"
         style="stop-color:#ff1e06;stop-opacity:1"
         offset="1" />
    </linearGradient>
    <linearGradient
       id="linearGradient8311">
      <stop
         id="stop8313"
         style="stop-color:#fafd00;stop-opacity:1"
         offset="0" />
      <stop
         id="stop8315"
         style="stop-color:#ff7a02;stop-opacity:1"
         offset="1" />
    </linearGradient>
    <linearGradient
       id="linearGradient6505">
      <stop
         id="stop6507"
         style="stop-color:#ffffff;stop-opacity:1"
         offset="0" />
      <stop
         id="stop6509"
         style="stop-color:#c8c8c8;stop-opacity:1"
         offset="1" />
    </linearGradient>
    <linearGradient
       x1="2"
       y1="1.980755"
       x2="14.215727"
       y2="14.057038"
       id="linearGradient6511"
       xlink:href="#linearGradient6505"
       gradientUnits="userSpaceOnUse"
       gradientTransform="matrix(0.83627663,0,0,1,0.32744675,0)" />
    <linearGradient
       x1="16.349319"
       y1="1.980755"
       x2="1.9999996"
       y2="14.051512"
       id="linearGradient6596"
       xlink:href="#linearGradient6505"
       gradientUnits="userSpaceOnUse"
       gradientTransform="matrix(-0.83627663,0,0,1,15.672553,0)" />
    <linearGradient
       x1="16.349319"
       y1="1.980755"
       x2="1.9999996"
       y2="14.051512"
       id="linearGradient7785"
       xlink:href="#linearGradient8311"
       gradientUnits="userSpaceOnUse"
       gradientTransform="matrix(-0.83627663,0,0,1,31.672553,0)" />
    <linearGradient
       x1="16.349319"
       y1="1.980755"
       x2="1.9999996"
       y2="14.051512"
       id="linearGradient7791"
       xlink:href="#linearGradient8317"
       gradientUnits="userSpaceOnUse"
       gradientTransform="matrix(-0.83627663,0,0,1,47.672553,0)" />
  </defs>
  <g
     id="layer4">
    <path
       d="M 13.8125,2 C 13.90571,2.0333333 13.982578,2.1291667 14,2.3125 l 0,11.375 C 13.986059,14.229167 13.649502,14.008333 13.59375,14 L 6,9.5 6,13 c 0,0.554 -0.446,1 -1,1 L 3,14 C 2.446,14 2,13.554 2,13 L 2,3 C 2,2.446 2.446,2 3,2 L 5,2 C 5.554,2 6,2.446 6,3 L 6,6.5 13.59375,2 c 0.02788,-0.016667 0.12554,-0.033333 0.21875,0 z"
       id="path5930"
       style="fill:url(#linearGradient6596);fill-opacity:1;stroke:none" />
    <path
       d="M 29.8125,2 C 29.90571,2.0333333 29.982578,2.1291667 30,2.3125 l 0,11.375 C 29.986059,14.229167 29.649502,14.008333 29.59375,14 L 22,9.5 22,13 c 0,0.554 -0.446,1 -1,1 l -2,0 c -0.554,0 -1,-0.446 -1,-1 L 18,3 c 0,-0.554 0.446,-1 1,-1 l 2,0 c 0.554,0 1,0.446 1,1 L 22,6.5 29.59375,2 c 0.02788,-0.016667 0.12554,-0.033333 0.21875,0 z"
       id="path7781"
       style="fill:url(#linearGradient7785);fill-opacity:1;stroke:none" />
    <path
       d="M 45.8125,2 C 45.90571,2.0333333 45.982578,2.1291667 46,2.3125 l 0,11.375 C 45.986059,14.229167 45.649502,14.008333 45.59375,14 L 38,9.5 38,13 c 0,0.554 -0.446,1 -1,1 l -2,0 c -0.554,0 -1,-0.446 -1,-1 L 34,3 c 0,-0.554 0.446,-1 1,-1 l 2,0 c 0.554,0 1,0.446 1,1 L 38,6.5 45.59375,2 c 0.02788,-0.016667 0.12554,-0.033333 0.21875,0 z"
       id="path7787"
       style="fill:url(#linearGradient7791);fill-opacity:1;stroke:none" />
    <path
       d="M 61.8125,2 C 61.90571,2.0333333 61.982578,2.1291667 62,2.3125 l 0,11.375 C 61.986059,14.229167 61.649502,14.008333 61.59375,14 L 54,9.5 54,13 c 0,0.554 -0.446,1 -1,1 l -2,0 c -0.554,0 -1,-0.446 -1,-1 L 50,3 c 0,-0.554 0.446,-1 1,-1 l 2,0 c 0.554,0 1,0.446 1,1 L 54,6.5 61.59375,2 c 0.02788,-0.016667 0.12554,-0.033333 0.21875,0 z"
       id="path7797"
       style="opacity:0.6;fill:#878787;fill-opacity:1;stroke:none" />
  </g>
  <g
     id="layer8">
    <path
       d="m 13.53125,1.46875 c -0.04472,0.00998 -0.101684,0.04245 -0.1875,0.09375 L 6.5,5.625 6.5,3 C 6.5,2.1776486 5.8223514,1.5 5,1.5 l -2,0 C 2.1776486,1.5 1.5,2.1776486 1.5,3 l 0,10 c 0,0.822351 0.6776486,1.5 1.5,1.5 l 2,0 c 0.8223514,0 1.5,-0.677649 1.5,-1.5 l 0,-2.625 6.84375,4.0625 0.09375,0.03125 0.09375,0.03125 c 0.07324,0.0248 0.175553,0.05201 0.34375,0.03125 0.168197,-0.02076 0.394792,-0.143174 0.5,-0.3125 0.105208,-0.169326 0.120161,-0.343233 0.125,-0.53125 l 0,-11.375 0,-0.03125 0,-0.03125 c -0.02897,-0.304885 -0.233998,-0.6124483 -0.53125,-0.71875 -0.123617,-0.044207 -0.216883,-0.067536 -0.3125,-0.0625 -0.04781,0.00252 -0.08028,-0.00998 -0.125,0 z M 3,2 5,2 C 5.554,2 6,2.446 6,3 L 6,6.5 13.59375,2 C 13.62163,1.983333 13.71929,1.966667 13.8125,2 13.90571,2.0333333 13.982578,2.1291667 14,2.3125 l 0,11.375 C 13.986059,14.229167 13.649502,14.008333 13.59375,14 L 6,9.5 6,13 c 0,0.554 -0.446,1 -1,1 L 3,14 C 2.446,14 2,13.554 2,13 L 2,3 C 2,2.446 2.446,2 3,2 z"
       id="path7774"
       style="font-size:medium;font-style:normal;font-variant:normal;font-weight:normal;font-stretch:normal;text-indent:0;text-align:start;text-decoration:none;line-height:normal;letter-spacing:normal;word-spacing:normal;text-transform:none;direction:ltr;block-progression:tb;writing-mode:lr-tb;text-anchor:start;opacity:0.4;color:#000000;fill:#000000;fill-opacity:1;fill-rule:nonzero;stroke:none;stroke-width:1;marker:none;visibility:visible;display:inline;overflow:visible;enable-background:accumulate;font-family:AlArabiya;-inkscape-font-specification:AlArabiya" />
    <path
       d="M 29.53125,1.46875 C 29.48653,1.47873 29.429566,1.5112 29.34375,1.5625 L 22.5,5.625 22.5,3 C 22.5,2.1776486 21.822351,1.5 21,1.5 l -2,0 c -0.822351,0 -1.5,0.6776486 -1.5,1.5 l 0,10 c 0,0.822351 0.677649,1.5 1.5,1.5 l 2,0 c 0.822351,0 1.5,-0.677649 1.5,-1.5 l 0,-2.625 6.84375,4.0625 0.09375,0.03125 0.09375,0.03125 c 0.07324,0.0248 0.175553,0.05201 0.34375,0.03125 0.168197,-0.02076 0.394792,-0.143174 0.5,-0.3125 0.105208,-0.169326 0.120161,-0.343233 0.125,-0.53125 l 0,-11.375 0,-0.03125 0,-0.03125 C 30.47103,1.945115 30.266002,1.6375517 29.96875,1.53125 29.845133,1.487043 29.751867,1.463714 29.65625,1.46875 c -0.04781,0.00252 -0.08028,-0.00998 -0.125,0 z M 19,2 21,2 c 0.554,0 1,0.446 1,1 L 22,6.5 29.59375,2 C 29.62163,1.983333 29.71929,1.966667 29.8125,2 29.90571,2.0333333 29.982578,2.1291667 30,2.3125 l 0,11.375 C 29.986059,14.229167 29.649502,14.008333 29.59375,14 L 22,9.5 22,13 c 0,0.554 -0.446,1 -1,1 l -2,0 c -0.554,0 -1,-0.446 -1,-1 L 18,3 c 0,-0.554 0.446,-1 1,-1 z"
       id="path7783"
       style="font-size:medium;font-style:normal;font-variant:normal;font-weight:normal;font-stretch:normal;text-indent:0;text-align:start;text-decoration:none;line-height:normal;letter-spacing:normal;word-spacing:normal;text-transform:none;direction:ltr;block-progression:tb;writing-mode:lr-tb;text-anchor:start;opacity:0.6;color:#000000;fill:#f35b00;fill-opacity:1;fill-rule:nonzero;stroke:none;stroke-width:1;marker:none;visibility:visible;display:inline;overflow:visible;enable-background:accumulate;font-family:AlArabiya;-inkscape-font-specification:AlArabiya" />
    <path
       d="M 45.53125,1.46875 C 45.48653,1.47873 45.429566,1.5112 45.34375,1.5625 L 38.5,5.625 38.5,3 C 38.5,2.1776486 37.822351,1.5 37,1.5 l -2,0 c -0.822351,0 -1.5,0.6776486 -1.5,1.5 l 0,10 c 0,0.822351 0.677649,1.5 1.5,1.5 l 2,0 c 0.822351,0 1.5,-0.677649 1.5,-1.5 l 0,-2.625 6.84375,4.0625 0.09375,0.03125 0.09375,0.03125 c 0.07324,0.0248 0.175553,0.05201 0.34375,0.03125 0.168197,-0.02076 0.394792,-0.143174 0.5,-0.3125 0.105208,-0.169326 0.120161,-0.343233 0.125,-0.53125 l 0,-11.375 0,-0.03125 0,-0.03125 C 46.47103,1.945115 46.266002,1.6375517 45.96875,1.53125 45.845133,1.487043 45.751867,1.463714 45.65625,1.46875 c -0.04781,0.00252 -0.08028,-0.00998 -0.125,0 z M 35,2 37,2 c 0.554,0 1,0.446 1,1 L 38,6.5 45.59375,2 C 45.62163,1.983333 45.71929,1.966667 45.8125,2 45.90571,2.0333333 45.982578,2.1291667 46,2.3125 l 0,11.375 C 45.986059,14.229167 45.649502,14.008333 45.59375,14 L 38,9.5 38,13 c 0,0.554 -0.446,1 -1,1 l -2,0 c -0.554,0 -1,-0.446 -1,-1 L 34,3 c 0,-0.554 0.446,-1 1,-1 z"
       id="path7789"
       style="font-size:medium;font-style:normal;font-variant:normal;font-weight:normal;font-stretch:normal;text-indent:0;text-align:start;text-decoration:none;line-height:normal;letter-spacing:normal;word-spacing:normal;text-transform:none;direction:ltr;block-progression:tb;writing-mode:lr-tb;text-anchor:start;opacity:0.6;color:#000000;fill:#c50000;fill-opacity:1;fill-rule:nonzero;stroke:none;stroke-width:1;marker:none;visibility:visible;display:inline;overflow:visible;enable-background:accumulate;font-family:AlArabiya;-inkscape-font-specification:AlArabiya" />
  </g>
</svg>
