<?xml version="1.0" encoding="UTF-8" standalone="no"?>
<!-- Created with Inkscape (http://www.inkscape.org/) -->

<svg
   xmlns:svg="http://www.w3.org/2000/svg"
   xmlns="http://www.w3.org/2000/svg"
   xmlns:xlink="http://www.w3.org/1999/xlink"
   version="1.1"
   width="64"
   height="16"
   id="svg5899">
  <defs
     id="defs5901">
    <linearGradient
       id="linearGradient4690">
      <stop
         id="stop4692"
         style="stop-color:#ffbfe0;stop-opacity:1"
         offset="0" />
      <stop
         id="stop4694"
         style="stop-color:#ff1e06;stop-opacity:1"
         offset="1" />
    </linearGradient>
    <linearGradient
       id="linearGradient4636">
      <stop
         id="stop4638"
         style="stop-color:#fafd00;stop-opacity:1"
         offset="0" />
      <stop
         id="stop4640"
         style="stop-color:#ff7a02;stop-opacity:1"
         offset="1" />
    </linearGradient>
    <linearGradient
       id="linearGradient6505">
      <stop
         id="stop6507"
         style="stop-color:#ffffff;stop-opacity:1"
         offset="0" />
      <stop
         id="stop6509"
         style="stop-color:#c8c8c8;stop-opacity:1"
         offset="1" />
    </linearGradient>
    <linearGradient
       x1="2"
       y1="1.980755"
       x2="14.215727"
       y2="14.057038"
       id="linearGradient6511"
       xlink:href="#linearGradient6505"
       gradientUnits="userSpaceOnUse" />
    <linearGradient
       x1="2"
       y1="1.980755"
       x2="14.215727"
       y2="14.057038"
       id="linearGradient4550"
       xlink:href="#linearGradient4636"
       gradientUnits="userSpaceOnUse"
       gradientTransform="translate(16,0)" />
    <linearGradient
       x1="2"
       y1="1.980755"
       x2="14.215727"
       y2="14.057038"
       id="linearGradient4686"
       xlink:href="#linearGradient4690"
       gradientUnits="userSpaceOnUse"
       gradientTransform="translate(32,0)" />
  </defs>
  <g
     transform="translate(0,-1036.3622)"
     id="layer1"
     style="display:none">
    <path
       d="M 2,2 2,14 14,8 2,2 z"
       transform="translate(0,1036.3622)"
       id="path6890"
       style="fill:none;stroke:#000000;stroke-width:1px;stroke-linecap:butt;stroke-linejoin:miter;stroke-opacity:1" />
  </g>
  <g
     id="layer4"
     style="display:inline">
    <path
       d="m 2,2.3 0,11.4 c 0.01667,0.541667 0.4333333,0.308333 0.5,0.3 L 14,8.3 C 14.275,8.2 14.3,7.875 14,7.7 L 2.5,2 C 2.4333333,1.9666667 2.0416667,1.9333333 2,2.3 z"
       id="play-normal"
       style="fill:url(#linearGradient6511);fill-opacity:1;stroke:none" />
    <path
       d="m 18,2.3 0,11.4 c 0.01667,0.541667 0.433333,0.308333 0.5,0.3 L 30,8.3 C 30.275,8.2 30.3,7.875 30,7.7 L 18.5,2 C 18.433333,1.9666667 18.041667,1.9333333 18,2.3 z"
       id="path4548"
       style="fill:url(#linearGradient4550);fill-opacity:1;stroke:none" />
    <path
       d="m 34,2.3 0,11.4 c 0.01667,0.541667 0.433333,0.308333 0.5,0.3 L 46,8.3 C 46.275,8.2 46.3,7.875 46,7.7 L 34.5,2 C 34.433333,1.9666667 34.041667,1.9333333 34,2.3 z"
       id="path4684"
       style="fill:url(#linearGradient4686);fill-opacity:1;stroke:none" />
    <path
       d="m 50,2.3 0,11.4 c 0.01667,0.541667 0.433333,0.308333 0.5,0.3 L 62,8.3 C 62.275,8.2 62.3,7.875 62,7.7 L 50.5,2 C 50.433333,1.9666667 50.041667,1.9333333 50,2.3 z"
       id="path4759"
       style="opacity:0.6;fill:#878787;fill-opacity:1;stroke:none" />
  </g>
  <g
     id="layer2"
     style="display:inline">
    <path
       d="M 2.40625,1.46875 C 2.311975,1.4645483 2.216459,1.494552 2.09375,1.53125 1.848332,1.604646 1.5408704,1.890341 1.5,2.25 l 0,0.03125 0,0.03125 0,11.375 0,0.03125 c 0.00617,0.200531 0.053351,0.391316 0.1875,0.5625 0.1341495,0.171184 0.3428404,0.26982 0.5,0.28125 0.1571596,0.01143 0.2673479,-0.03962 0.34375,-0.0625 0.038201,-0.01144 0.078896,0.0051 0.09375,0 l 0.03125,0 0.0625,-0.0625 L 14.15625,8.78125 14.21875,8.75 14.1875,8.71875 c 0.266068,-0.124806 0.523152,-0.3878762 0.53125,-0.6875 0.0087,-0.323335 -0.197165,-0.5915751 -0.46875,-0.75 l 0,-0.03125 -0.03125,0 -11.5,-5.6875 C 2.5567392,1.4814947 2.500525,1.4729517 2.40625,1.46875 z M 2.25,2 C 2.3614583,1.9666667 2.4666667,1.9833334 2.5,2 L 14,7.6875 c 0.3,0.175 0.275,0.525 0,0.625 L 2.5,14 C 2.4333333,14.008333 2.01667,14.229167 2,13.6875 L 2,2.3125 C 2.0208334,2.1291667 2.1385417,2.0333333 2.25,2 z"
       id="path4397"
       style="font-size:medium;font-style:normal;font-variant:normal;font-weight:normal;font-stretch:normal;text-indent:0;text-align:start;text-decoration:none;line-height:normal;letter-spacing:normal;word-spacing:normal;text-transform:none;direction:ltr;block-progression:tb;writing-mode:lr-tb;text-anchor:start;opacity:0.4;color:#000000;fill:#000000;fill-opacity:1;fill-rule:nonzero;stroke:none;stroke-width:1;marker:none;visibility:visible;display:inline;overflow:visible;enable-background:accumulate;font-family:AlArabiya;-inkscape-font-specification:AlArabiya" />
    <path
       d="M 18.40625,1.46875 C 18.31198,1.46455 18.216459,1.494552 18.09375,1.53125 17.848332,1.604646 17.54087,1.890341 17.5,2.25 l 0,0.03125 0,0.03125 0,11.375 0,0.03125 c 0.0062,0.200531 0.05335,0.391316 0.1875,0.5625 0.134149,0.171184 0.34284,0.26982 0.5,0.28125 0.15716,0.01143 0.267348,-0.03962 0.34375,-0.0625 0.0382,-0.01144 0.0789,0.0051 0.09375,0 l 0.03125,0 0.0625,-0.0625 L 30.15625,8.78125 30.21875,8.75 30.1875,8.71875 c 0.266068,-0.124806 0.523152,-0.3878762 0.53125,-0.6875 0.0087,-0.323335 -0.197165,-0.5915751 -0.46875,-0.75 l 0,-0.03125 -0.03125,0 -11.5,-5.6875 C 18.556739,1.4814947 18.500525,1.4729517 18.40625,1.46875 z M 18.25,2 C 18.361458,1.966667 18.466667,1.983333 18.5,2 L 30,7.6875 c 0.3,0.175 0.275,0.525 0,0.625 L 18.5,14 C 18.43333,14.0083 18.01667,14.229167 18,13.6875 L 18,2.3125 C 18.020833,2.1291667 18.138542,2.0333333 18.25,2 z"
       id="path4552"
       style="font-size:medium;font-style:normal;font-variant:normal;font-weight:normal;font-stretch:normal;text-indent:0;text-align:start;text-decoration:none;line-height:normal;letter-spacing:normal;word-spacing:normal;text-transform:none;direction:ltr;block-progression:tb;writing-mode:lr-tb;text-anchor:start;opacity:0.6;color:#000000;fill:#f35b00;fill-opacity:1;fill-rule:nonzero;stroke:none;stroke-width:1;marker:none;visibility:visible;display:inline;overflow:visible;enable-background:accumulate;font-family:AlArabiya;-inkscape-font-specification:AlArabiya" />
    <path
       d="M 34.40625,1.46875 C 34.31198,1.46455 34.216459,1.494552 34.09375,1.53125 33.848332,1.604646 33.54087,1.890341 33.5,2.25 l 0,0.03125 0,0.03125 0,11.375 0,0.03125 c 0.0062,0.200531 0.05335,0.391316 0.1875,0.5625 0.134149,0.171184 0.34284,0.26982 0.5,0.28125 0.15716,0.01143 0.267348,-0.03962 0.34375,-0.0625 0.0382,-0.01144 0.0789,0.0051 0.09375,0 l 0.03125,0 0.0625,-0.0625 L 46.15625,8.78125 46.21875,8.75 46.1875,8.71875 c 0.266068,-0.124806 0.523152,-0.3878762 0.53125,-0.6875 0.0087,-0.323335 -0.197165,-0.5915751 -0.46875,-0.75 l 0,-0.03125 -0.03125,0 -11.5,-5.6875 C 34.556739,1.4814947 34.500525,1.4729517 34.40625,1.46875 z M 34.25,2 C 34.361458,1.966667 34.466667,1.983333 34.5,2 L 46,7.6875 c 0.3,0.175 0.275,0.525 0,0.625 L 34.5,14 C 34.43333,14.0083 34.01667,14.229167 34,13.6875 L 34,2.3125 C 34.020833,2.1291667 34.138542,2.0333333 34.25,2 z"
       id="path4688"
       style="font-size:medium;font-style:normal;font-variant:normal;font-weight:normal;font-stretch:normal;text-indent:0;text-align:start;text-decoration:none;line-height:normal;letter-spacing:normal;word-spacing:normal;text-transform:none;direction:ltr;block-progression:tb;writing-mode:lr-tb;text-anchor:start;opacity:0.6;color:#000000;fill:#c50000;fill-opacity:1;fill-rule:nonzero;stroke:none;stroke-width:1;marker:none;visibility:visible;display:inline;overflow:visible;enable-background:accumulate;font-family:AlArabiya;-inkscape-font-specification:AlArabiya" />
  </g>
  <g
     id="layer3" />
</svg>
