<?xml version="1.0" encoding="UTF-8" standalone="no"?>
<!-- Created with Inkscape (http://www.inkscape.org/) -->

<svg
   xmlns:svg="http://www.w3.org/2000/svg"
   xmlns="http://www.w3.org/2000/svg"
   xmlns:xlink="http://www.w3.org/1999/xlink"
   version="1.1"
   width="64"
   height="16"
   id="svg5899"
   style="display:inline">
  <defs
     id="defs5901">
    <linearGradient
       id="linearGradient5431">
      <stop
         id="stop5433"
         style="stop-color:#ffbfe0;stop-opacity:1"
         offset="0" />
      <stop
         id="stop5435"
         style="stop-color:#ff1e06;stop-opacity:1"
         offset="1" />
    </linearGradient>
    <linearGradient
       id="linearGradient5413">
      <stop
         id="stop5415"
         style="stop-color:#fafd00;stop-opacity:1"
         offset="0" />
      <stop
         id="stop5417"
         style="stop-color:#ff7a02;stop-opacity:1"
         offset="1" />
    </linearGradient>
    <linearGradient
       id="linearGradient6505">
      <stop
         id="stop6507"
         style="stop-color:#ffffff;stop-opacity:1"
         offset="0" />
      <stop
         id="stop6509"
         style="stop-color:#c8c8c8;stop-opacity:1"
         offset="1" />
    </linearGradient>
    <linearGradient
       x1="2"
       y1="1.980755"
       x2="14.215727"
       y2="14.057038"
       id="linearGradient6511"
       xlink:href="#linearGradient6505"
       gradientUnits="userSpaceOnUse"
       gradientTransform="matrix(0.83627663,0,0,1,0.32744675,0)" />
    <linearGradient
       x1="2"
       y1="1.980755"
       x2="16.349319"
       y2="14.051512"
       id="linearGradient6596"
       xlink:href="#linearGradient6505"
       gradientUnits="userSpaceOnUse"
       gradientTransform="matrix(0.83627663,0,0,1,0.32744675,0)" />
    <linearGradient
       x1="2"
       y1="1.980755"
       x2="16.349319"
       y2="14.051512"
       id="linearGradient5409"
       xlink:href="#linearGradient5413"
       gradientUnits="userSpaceOnUse"
       gradientTransform="matrix(0.83627663,0,0,1,16.327447,0)" />
    <linearGradient
       x1="2"
       y1="1.980755"
       x2="16.349319"
       y2="14.051512"
       id="linearGradient5429"
       xlink:href="#linearGradient5431"
       gradientUnits="userSpaceOnUse"
       gradientTransform="matrix(0.83627663,0,0,1,32.327447,0)" />
  </defs>
  <g
     id="layer4">
    <path
       d="M 2.1875,2 C 2.09429,2.0333333 2.0174224,2.1291667 2,2.3125 l 0,11.375 C 2.013941,14.229167 2.3504982,14.008333 2.40625,14 L 10,9.5 10,13 c 0,0.554 0.446,1 1,1 l 2,0 c 0.554,0 1,-0.446 1,-1 L 14,3 C 14,2.446 13.554,2 13,2 L 11,2 C 10.446,2 10,2.446 10,3 L 10,6.5 2.40625,2 C 2.3783741,1.9833334 2.28071,1.9666667 2.1875,2 z"
       id="path5930"
       style="fill:url(#linearGradient6596);fill-opacity:1;stroke:none" />
    <path
       d="M 18.1875,2 C 18.09429,2.0333333 18.017422,2.1291667 18,2.3125 l 0,11.375 c 0.01394,0.541667 0.350498,0.320833 0.40625,0.3125 L 26,9.5 26,13 c 0,0.554 0.446,1 1,1 l 2,0 c 0.554,0 1,-0.446 1,-1 L 30,3 C 30,2.446 29.554,2 29,2 L 27,2 C 26.446,2 26,2.446 26,3 L 26,6.5 18.40625,2 C 18.37837,1.983333 18.28071,1.966667 18.1875,2 z"
       id="path5407"
       style="fill:url(#linearGradient5409);fill-opacity:1;stroke:none" />
    <path
       d="M 34.1875,2 C 34.09429,2.0333333 34.017422,2.1291667 34,2.3125 l 0,11.375 c 0.01394,0.541667 0.350498,0.320833 0.40625,0.3125 L 42,9.5 42,13 c 0,0.554 0.446,1 1,1 l 2,0 c 0.554,0 1,-0.446 1,-1 L 46,3 C 46,2.446 45.554,2 45,2 L 43,2 C 42.446,2 42,2.446 42,3 L 42,6.5 34.40625,2 C 34.37837,1.983333 34.28071,1.966667 34.1875,2 z"
       id="path5423"
       style="fill:url(#linearGradient5429);fill-opacity:1;stroke:none" />
    <path
       d="M 50.1875,2 C 50.09429,2.0333333 50.017422,2.1291667 50,2.3125 l 0,11.375 c 0.01394,0.541667 0.350498,0.320833 0.40625,0.3125 L 58,9.5 58,13 c 0,0.554 0.446,1 1,1 l 2,0 c 0.554,0 1,-0.446 1,-1 L 62,3 C 62,2.446 61.554,2 61,2 L 59,2 C 58.446,2 58,2.446 58,3 L 58,6.5 50.40625,2 C 50.37837,1.983333 50.28071,1.966667 50.1875,2 z"
       id="path5425"
       style="opacity:0.6;fill:#878787;fill-opacity:1;stroke:none" />
  </g>
  <g
     id="layer5">
    <path
       d="M 2.34375,1.46875 C 2.2481328,1.4637135 2.1548702,1.4870416 2.03125,1.53125 1.7339979,1.6375518 1.5289735,1.9451162 1.5,2.25 l 0,0.03125 0,0.03125 0,11.375 c 0.00484,0.188017 0.019792,0.361924 0.125,0.53125 0.105208,0.169326 0.3318033,0.291744 0.5,0.3125 C 2.2931967,14.55201 2.3955081,14.52475 2.46875,14.5 2.5850739,14.48261 2.5744364,14.46401 2.5625,14.46875 L 2.65625,14.4375 9.5,10.375 9.5,13 c 0,0.822351 0.677649,1.5 1.5,1.5 l 2,0 c 0.822351,0 1.5,-0.677649 1.5,-1.5 l 0,-10 C 14.5,2.1776486 13.822351,1.5 13,1.5 l -2,0 C 10.177649,1.5 9.5,2.1776486 9.5,3 L 9.5,5.625 2.65625,1.5625 C 2.4845782,1.4598599 2.4393672,1.4737865 2.34375,1.46875 z M 2.1875,2 C 2.28071,1.9666667 2.3783741,1.9833334 2.40625,2 L 10,6.5 10,3 c 0,-0.554 0.446,-1 1,-1 l 2,0 c 0.554,0 1,0.446 1,1 l 0,10 c 0,0.554 -0.446,1 -1,1 l -2,0 c -0.554,0 -1,-0.446 -1,-1 L 10,9.5 2.40625,14 C 2.3504982,14.008333 2.013941,14.229167 2,13.6875 L 2,2.3125 C 2.0174224,2.1291667 2.09429,2.0333333 2.1875,2 z"
       id="path4890"
       style="font-size:medium;font-style:normal;font-variant:normal;font-weight:normal;font-stretch:normal;text-indent:0;text-align:start;text-decoration:none;line-height:normal;letter-spacing:normal;word-spacing:normal;text-transform:none;direction:ltr;block-progression:tb;writing-mode:lr-tb;text-anchor:start;opacity:0.4;color:#000000;fill:#000000;fill-opacity:1;fill-rule:nonzero;stroke:none;stroke-width:1;marker:none;visibility:visible;display:inline;overflow:visible;enable-background:accumulate;font-family:AlArabiya;-inkscape-font-specification:AlArabiya" />
    <path
       d="M 18.34375,1.46875 C 18.24813,1.46371 18.15487,1.487042 18.03125,1.53125 17.733998,1.6375518 17.528973,1.9451162 17.5,2.25 l 0,0.03125 0,0.03125 0,11.375 c 0.0048,0.188017 0.01979,0.361924 0.125,0.53125 0.105208,0.169326 0.331803,0.291744 0.5,0.3125 0.168197,0.02076 0.270508,-0.0065 0.34375,-0.03125 0.116324,-0.01739 0.105686,-0.03599 0.09375,-0.03125 L 18.65625,14.4375 25.5,10.375 25.5,13 c 0,0.822351 0.677649,1.5 1.5,1.5 l 2,0 c 0.822351,0 1.5,-0.677649 1.5,-1.5 l 0,-10 C 30.5,2.1776486 29.822351,1.5 29,1.5 l -2,0 c -0.822351,0 -1.5,0.6776486 -1.5,1.5 l 0,2.625 -6.84375,-4.0625 C 18.484578,1.4598599 18.439367,1.4737865 18.34375,1.46875 z M 18.1875,2 c 0.09321,-0.033333 0.190874,-0.016667 0.21875,0 L 26,6.5 26,3 c 0,-0.554 0.446,-1 1,-1 l 2,0 c 0.554,0 1,0.446 1,1 l 0,10 c 0,0.554 -0.446,1 -1,1 l -2,0 c -0.554,0 -1,-0.446 -1,-1 L 26,9.5 18.40625,14 C 18.350498,14.008333 18.013941,14.229167 18,13.6875 L 18,2.3125 C 18.017422,2.1291667 18.09429,2.0333333 18.1875,2 z"
       id="path5411"
       style="font-size:medium;font-style:normal;font-variant:normal;font-weight:normal;font-stretch:normal;text-indent:0;text-align:start;text-decoration:none;line-height:normal;letter-spacing:normal;word-spacing:normal;text-transform:none;direction:ltr;block-progression:tb;writing-mode:lr-tb;text-anchor:start;opacity:0.6;color:#000000;fill:#f35b00;fill-opacity:1;fill-rule:nonzero;stroke:none;stroke-width:1;marker:none;visibility:visible;display:inline;overflow:visible;enable-background:accumulate;font-family:AlArabiya;-inkscape-font-specification:AlArabiya" />
    <path
       d="M 34.34375,1.46875 C 34.24813,1.46371 34.15487,1.487042 34.03125,1.53125 33.733998,1.6375518 33.528973,1.9451162 33.5,2.25 l 0,0.03125 0,0.03125 0,11.375 c 0.0048,0.188017 0.01979,0.361924 0.125,0.53125 0.105208,0.169326 0.331803,0.291744 0.5,0.3125 0.168197,0.02076 0.270508,-0.0065 0.34375,-0.03125 0.116324,-0.01739 0.105686,-0.03599 0.09375,-0.03125 L 34.65625,14.4375 41.5,10.375 41.5,13 c 0,0.822351 0.677649,1.5 1.5,1.5 l 2,0 c 0.822351,0 1.5,-0.677649 1.5,-1.5 l 0,-10 C 46.5,2.1776486 45.822351,1.5 45,1.5 l -2,0 c -0.822351,0 -1.5,0.6776486 -1.5,1.5 l 0,2.625 -6.84375,-4.0625 C 34.484578,1.4598599 34.439367,1.4737865 34.34375,1.46875 z M 34.1875,2 c 0.09321,-0.033333 0.190874,-0.016667 0.21875,0 L 42,6.5 42,3 c 0,-0.554 0.446,-1 1,-1 l 2,0 c 0.554,0 1,0.446 1,1 l 0,10 c 0,0.554 -0.446,1 -1,1 l -2,0 c -0.554,0 -1,-0.446 -1,-1 L 42,9.5 34.40625,14 C 34.350498,14.008333 34.013941,14.229167 34,13.6875 L 34,2.3125 C 34.017422,2.1291667 34.09429,2.0333333 34.1875,2 z"
       id="path5419"
       style="font-size:medium;font-style:normal;font-variant:normal;font-weight:normal;font-stretch:normal;text-indent:0;text-align:start;text-decoration:none;line-height:normal;letter-spacing:normal;word-spacing:normal;text-transform:none;direction:ltr;block-progression:tb;writing-mode:lr-tb;text-anchor:start;opacity:0.6;color:#000000;fill:#c50000;fill-opacity:1;fill-rule:nonzero;stroke:none;stroke-width:1;marker:none;visibility:visible;display:inline;overflow:visible;enable-background:accumulate;font-family:AlArabiya;-inkscape-font-specification:AlArabiya" />
  </g>
</svg>
