<?xml version="1.0" encoding="UTF-8" standalone="no"?>
<!-- Created with Inkscape (http://www.inkscape.org/) -->

<svg
   xmlns:svg="http://www.w3.org/2000/svg"
   xmlns="http://www.w3.org/2000/svg"
   xmlns:xlink="http://www.w3.org/1999/xlink"
   version="1.1"
   width="64"
   height="16"
   id="svg5899"
   style="display:inline">
  <defs
     id="defs5901">
    <linearGradient
       id="linearGradient6892">
      <stop
         id="stop6894"
         style="stop-color:#ffbfe0;stop-opacity:1"
         offset="0" />
      <stop
         id="stop6896"
         style="stop-color:#ff1e06;stop-opacity:1"
         offset="1" />
    </linearGradient>
    <linearGradient
       id="linearGradient6766">
      <stop
         id="stop6768"
         style="stop-color:#f7fa00;stop-opacity:1"
         offset="0" />
      <stop
         id="stop6770"
         style="stop-color:#ff7a02;stop-opacity:1"
         offset="1" />
    </linearGradient>
    <linearGradient
       id="linearGradient6505">
      <stop
         id="stop6507"
         style="stop-color:#ffffff;stop-opacity:1"
         offset="0" />
      <stop
         id="stop6509"
         style="stop-color:#c8c8c8;stop-opacity:1"
         offset="1" />
    </linearGradient>
    <linearGradient
       x1="2"
       y1="1.980755"
       x2="14.215727"
       y2="14.057038"
       id="linearGradient6511"
       xlink:href="#linearGradient6505"
       gradientUnits="userSpaceOnUse"
       gradientTransform="matrix(0.83627663,0,0,1,0.32744675,0)" />
    <linearGradient
       x1="2"
       y1="2"
       x2="14"
       y2="14"
       id="linearGradient6787"
       xlink:href="#linearGradient6505"
       gradientUnits="userSpaceOnUse"
       gradientTransform="translate(5.3,-14.1)" />
    <linearGradient
       x1="2"
       y1="2"
       x2="14"
       y2="14"
       id="linearGradient6818"
       xlink:href="#linearGradient6505"
       gradientUnits="userSpaceOnUse" />
    <linearGradient
       x1="2"
       y1="2"
       x2="14"
       y2="14"
       id="linearGradient6754"
       xlink:href="#linearGradient6766"
       gradientUnits="userSpaceOnUse"
       gradientTransform="translate(16,0)" />
    <linearGradient
       x1="2"
       y1="2"
       x2="14"
       y2="14"
       id="linearGradient6760"
       xlink:href="#linearGradient6892"
       gradientUnits="userSpaceOnUse"
       gradientTransform="translate(32,0)" />
  </defs>
  <g
     id="layer4"
     style="display:inline">
    <rect
       width="12"
       height="12"
       rx="1"
       ry="1"
       x="2"
       y="2"
       id="rect6810"
       style="color:#000000;fill:url(#linearGradient6818);fill-opacity:1;fill-rule:nonzero;stroke:none;stroke-width:0.5;marker:none;visibility:visible;display:inline;overflow:visible;enable-background:accumulate" />
    <rect
       width="12"
       height="12"
       rx="1"
       ry="1"
       x="18"
       y="2"
       id="rect6750"
       style="color:#000000;fill:url(#linearGradient6754);fill-opacity:1;fill-rule:nonzero;stroke:none;stroke-width:0.5;marker:none;visibility:visible;display:inline;overflow:visible;enable-background:accumulate" />
    <rect
       width="12"
       height="12"
       rx="1"
       ry="1"
       x="34"
       y="2"
       id="rect6756"
       style="color:#000000;fill:url(#linearGradient6760);fill-opacity:1;fill-rule:nonzero;stroke:none;stroke-width:0.5;marker:none;visibility:visible;display:inline;overflow:visible;enable-background:accumulate" />
    <rect
       width="12"
       height="12"
       rx="1"
       ry="1"
       x="50"
       y="2"
       id="rect6762"
       style="opacity:0.6;color:#000000;fill:#878787;fill-opacity:1;fill-rule:nonzero;stroke:none;stroke-width:0.5;marker:none;visibility:visible;display:inline;overflow:visible;enable-background:accumulate" />
  </g>
  <g
     id="layer7">
    <path
       d="M 3,1.5 C 2.1776486,1.5 1.5,2.1776486 1.5,3 l 0,10 c 0,0.822351 0.6776486,1.5 1.5,1.5 l 10,0 c 0.822351,0 1.5,-0.677649 1.5,-1.5 l 0,-10 C 14.5,2.1776486 13.822351,1.5 13,1.5 L 3,1.5 z M 3,2 13,2 c 0.554,0 1,0.446 1,1 l 0,10 c 0,0.554 -0.446,1 -1,1 L 3,14 C 2.446,14 2,13.554 2,13 L 2,3 C 2,2.446 2.446,2 3,2 z"
       id="rect6877"
       style="font-size:medium;font-style:normal;font-variant:normal;font-weight:normal;font-stretch:normal;text-indent:0;text-align:start;text-decoration:none;line-height:normal;letter-spacing:normal;word-spacing:normal;text-transform:none;direction:ltr;block-progression:tb;writing-mode:lr-tb;text-anchor:start;opacity:0.4;color:#000000;fill:#000000;fill-opacity:1;fill-rule:nonzero;stroke:none;stroke-width:1;marker:none;visibility:visible;display:inline;overflow:visible;enable-background:accumulate;font-family:AlArabiya;-inkscape-font-specification:AlArabiya" />
    <path
       d="m 35,1.5 c -0.822351,0 -1.5,0.6776486 -1.5,1.5 l 0,10 c 0,0.822351 0.677649,1.5 1.5,1.5 l 10,0 c 0.822351,0 1.5,-0.677649 1.5,-1.5 l 0,-10 C 46.5,2.1776486 45.822351,1.5 45,1.5 l -10,0 z M 35,2 45,2 c 0.554,0 1,0.446 1,1 l 0,10 c 0,0.554 -0.446,1 -1,1 l -10,0 c -0.554,0 -1,-0.446 -1,-1 L 34,3 c 0,-0.554 0.446,-1 1,-1 z"
       id="path6888"
       style="font-size:medium;font-style:normal;font-variant:normal;font-weight:normal;font-stretch:normal;text-indent:0;text-align:start;text-decoration:none;line-height:normal;letter-spacing:normal;word-spacing:normal;text-transform:none;direction:ltr;block-progression:tb;writing-mode:lr-tb;text-anchor:start;opacity:0.6;color:#000000;fill:#c50000;fill-opacity:1;fill-rule:nonzero;stroke:none;stroke-width:1;marker:none;visibility:visible;display:inline;overflow:visible;enable-background:accumulate;font-family:AlArabiya;-inkscape-font-specification:AlArabiya" />
    <path
       d="m 19,1.5 c -0.822351,0 -1.5,0.6776486 -1.5,1.5 l 0,10 c 0,0.822351 0.677649,1.5 1.5,1.5 l 10,0 c 0.822351,0 1.5,-0.677649 1.5,-1.5 l 0,-10 C 30.5,2.1776486 29.822351,1.5 29,1.5 l -10,0 z M 19,2 29,2 c 0.554,0 1,0.446 1,1 l 0,10 c 0,0.554 -0.446,1 -1,1 l -10,0 c -0.554,0 -1,-0.446 -1,-1 L 18,3 c 0,-0.554 0.446,-1 1,-1 z"
       id="path6890"
       style="font-size:medium;font-style:normal;font-variant:normal;font-weight:normal;font-stretch:normal;text-indent:0;text-align:start;text-decoration:none;line-height:normal;letter-spacing:normal;word-spacing:normal;text-transform:none;direction:ltr;block-progression:tb;writing-mode:lr-tb;text-anchor:start;opacity:0.6;color:#000000;fill:#f35b00;fill-opacity:1;fill-rule:nonzero;stroke:none;stroke-width:1;marker:none;visibility:visible;display:inline;overflow:visible;enable-background:accumulate;font-family:AlArabiya;-inkscape-font-specification:AlArabiya" />
  </g>
</svg>
