<?xml version="1.0" encoding="UTF-8" standalone="no"?>
<!-- Created with Inkscape (http://www.inkscape.org/) -->

<svg
   xmlns:dc="http://purl.org/dc/elements/1.1/"
   xmlns:cc="http://creativecommons.org/ns#"
   xmlns:rdf="http://www.w3.org/1999/02/22-rdf-syntax-ns#"
   xmlns:svg="http://www.w3.org/2000/svg"
   xmlns="http://www.w3.org/2000/svg"
   xmlns:xlink="http://www.w3.org/1999/xlink"
   xmlns:sodipodi="http://sodipodi.sourceforge.net/DTD/sodipodi-0.dtd"
   xmlns:inkscape="http://www.inkscape.org/namespaces/inkscape"
   width="32"
   height="32"
   id="svg2"
   version="1.1"
   inkscape:version="0.47pre4 r22446"
   sodipodi:docname="osd-lyrics-osd-bg.svg">
  <defs
     id="defs4">
    <linearGradient
       id="linearGradient3726">
      <stop
         style="stop-color:#ffffff;stop-opacity:1;"
         offset="0"
         id="stop3728" />
      <stop
         id="stop3736"
         offset="0.07800982"
         style="stop-color:#ffffff;stop-opacity:0;" />
      <stop
         id="stop3734"
         offset="0.94499046"
         style="stop-color:#bababa;stop-opacity:0;" />
      <stop
         style="stop-color:#626262;stop-opacity:0.60000002;"
         offset="1"
         id="stop3730" />
    </linearGradient>
    <linearGradient
       id="linearGradient3621">
      <stop
         style="stop-color:#ffffff;stop-opacity:1;"
         offset="0"
         id="stop3623" />
      <stop
         style="stop-color:#ffffff;stop-opacity:0;"
         offset="1"
         id="stop3625" />
    </linearGradient>
    <linearGradient
       id="linearGradient3590">
      <stop
         style="stop-color:#ffffff;stop-opacity:0.50588238;"
         offset="0"
         id="stop3592" />
      <stop
         id="stop3629"
         offset="0.5"
         style="stop-color:#a1a1a1;stop-opacity:0.50588238;" />
      <stop
         style="stop-color:#ffffff;stop-opacity:0.50400001;"
         offset="1"
         id="stop3594" />
    </linearGradient>
    <inkscape:perspective
       sodipodi:type="inkscape:persp3d"
       inkscape:vp_x="0 : 526.18109 : 1"
       inkscape:vp_y="0 : 1000 : 0"
       inkscape:vp_z="744.09448 : 526.18109 : 1"
       inkscape:persp3d-origin="372.04724 : 350.78739 : 1"
       id="perspective10" />
    <linearGradient
       inkscape:collect="always"
       xlink:href="#linearGradient3621"
       id="linearGradient3627"
       x1="63.194443"
       y1="9.9444447"
       x2="63.194443"
       y2="26.611111"
       gradientUnits="userSpaceOnUse"
       gradientTransform="matrix(1.0487828,0,0,3.1913044,-2.3725752,900.29819)" />
    <inkscape:perspective
       id="perspective3631"
       inkscape:persp3d-origin="0.5 : 0.33333333 : 1"
       inkscape:vp_z="1 : 0.5 : 1"
       inkscape:vp_y="0 : 1000 : 0"
       inkscape:vp_x="0 : 0.5 : 1"
       sodipodi:type="inkscape:persp3d" />
    <inkscape:perspective
       id="perspective3662"
       inkscape:persp3d-origin="0.5 : 0.33333333 : 1"
       inkscape:vp_z="1 : 0.5 : 1"
       inkscape:vp_y="0 : 1000 : 0"
       inkscape:vp_x="0 : 0.5 : 1"
       sodipodi:type="inkscape:persp3d" />
    <inkscape:perspective
       id="perspective3701"
       inkscape:persp3d-origin="0.5 : 0.33333333 : 1"
       inkscape:vp_z="1 : 0.5 : 1"
       inkscape:vp_y="0 : 1000 : 0"
       inkscape:vp_x="0 : 0.5 : 1"
       sodipodi:type="inkscape:persp3d" />
    <linearGradient
       inkscape:collect="always"
       xlink:href="#linearGradient3726"
       id="linearGradient3732"
       x1="16"
       y1="1"
       x2="16"
       y2="31"
       gradientUnits="userSpaceOnUse" />
  </defs>
  <sodipodi:namedview
     id="base"
     pagecolor="#ffffff"
     bordercolor="#666666"
     borderopacity="1.0"
     inkscape:pageopacity="0.0"
     inkscape:pageshadow="2"
     inkscape:zoom="12.21"
     inkscape:cx="3.4478458"
     inkscape:cy="16.030831"
     inkscape:document-units="px"
     inkscape:current-layer="layer2"
     showgrid="false"
     inkscape:window-width="1280"
     inkscape:window-height="749"
     inkscape:window-x="0"
     inkscape:window-y="26"
     inkscape:window-maximized="1" />
  <metadata
     id="metadata7">
    <rdf:RDF>
      <cc:Work
         rdf:about="">
        <dc:format>image/svg+xml</dc:format>
        <dc:type
           rdf:resource="http://purl.org/dc/dcmitype/StillImage" />
        <dc:title />
      </cc:Work>
    </rdf:RDF>
  </metadata>
  <g
     inkscape:label="Layer 1"
     inkscape:groupmode="layer"
     id="layer1"
     transform="translate(0,-1020.3622)"
     style="display:inline">
    <path
       style="opacity:0.2;fill:#ffffff;fill-opacity:1;fill-rule:evenodd;stroke:none"
       d="M 2.90625,1 C 1.8430439,1 1,1.8430439 1,2.90625 l 0,26.1875 C 1,30.156956 1.8430439,31 2.90625,31 l 26.1875,0 C 30.156956,31 31,30.156956 31,29.09375 L 31,2.90625 C 31,1.8430439 30.156956,1 29.09375,1 L 2.90625,1 z"
       id="rect3604"
       transform="translate(0,1020.3622)" />
    <path
       style="opacity:0.40000000000000002;fill:#ffffff;fill-opacity:1;fill-rule:evenodd;stroke:none;"
       d="M 2.90625 1 C 1.8430439 1 1 1.8430439 1 2.90625 L 1 29.09375 C 1 30.156956 1.8430439 31 2.90625 31 L 29.09375 31 C 30.156956 31 31 30.156956 31 29.09375 L 31 2.90625 C 31 1.8430439 30.156956 1 29.09375 1 L 2.90625 1 z M 3.78125 2 L 28.21875 2 C 29.211074 2 30 2.78875 30 3.78125 L 30 28.21875 C 30 29.21115 29.211074 30 28.21875 30 L 3.78125 30 C 2.7889243 30 2 29.21115 2 28.21875 L 2 3.78125 C 2 2.78875 2.7889243 2 3.78125 2 z "
       transform="translate(0,1020.3622)"
       id="path3639" />
  </g>
  <g
     inkscape:groupmode="layer"
     id="layer2"
     inkscape:label="border"
     style="display:inline">
    <path
       style="opacity:0.4;fill:#8a8a8a;fill-opacity:1;fill-rule:evenodd;stroke:none;display:inline"
       d="M 2.0625001,0 C 0.92841342,0 0,0.9284134 0,2.0625 L 0,29.937499 C 0,31.071587 0.92841342,32 2.0625001,32 L 29.937499,32 C 31.071586,32 32,31.071587 32,29.937499 L 32,2.0625 C 32,0.9284134 31.071586,0 29.937499,0 L 2.0625001,0 z m 0.8437498,0.99999996 26.1875001,0 C 30.156956,0.99999996 31,1.8430439 31,2.90625 l 0,26.1875 C 31,30.156956 30.156956,31 29.09375,31 L 2.9062499,31 C 1.8430439,31 1,30.156956 1,29.09375 L 1,2.90625 C 1,1.8430439 1.8430439,0.99999996 2.9062499,0.99999996 z"
       id="rect3604-1" />
  </g>
  <g
     inkscape:groupmode="layer"
     id="layer3"
     inkscape:label="层" />
</svg>
