<?xml version="1.0" encoding="UTF-8" standalone="no"?>
<!-- Created with Inkscape (http://www.inkscape.org/) -->

<svg
   xmlns:dc="http://purl.org/dc/elements/1.1/"
   xmlns:cc="http://creativecommons.org/ns#"
   xmlns:rdf="http://www.w3.org/1999/02/22-rdf-syntax-ns#"
   xmlns:svg="http://www.w3.org/2000/svg"
   xmlns="http://www.w3.org/2000/svg"
   xmlns:xlink="http://www.w3.org/1999/xlink"
   xmlns:sodipodi="http://sodipodi.sourceforge.net/DTD/sodipodi-0.dtd"
   xmlns:inkscape="http://www.inkscape.org/namespaces/inkscape"
   width="88"
   height="22"
   id="svg5899"
   version="1.1"
   inkscape:version="0.47pre4 r22446"
   sodipodi:docname="osd-lyrics-osd-pause.svg"
   style="display:inline">
  <defs
     id="defs5901">
    <linearGradient
       id="linearGradient5190">
      <stop
         id="stop5192"
         offset="0"
         style="stop-color:#ffffff;stop-opacity:1;" />
      <stop
         id="stop5194"
         offset="1"
         style="stop-color:#e6e6e6;stop-opacity:1" />
    </linearGradient>
    <linearGradient
       id="linearGradient6117">
      <stop
         id="stop6119"
         offset="0"
         style="stop-color:#ffbfe0;stop-opacity:1;" />
      <stop
         id="stop6121"
         offset="1"
         style="stop-color:#ff1e06;stop-opacity:1;" />
    </linearGradient>
    <linearGradient
       id="linearGradient6111">
      <stop
         id="stop6113"
         offset="0"
         style="stop-color:#f7fa00;stop-opacity:1;" />
      <stop
         id="stop6115"
         offset="1"
         style="stop-color:#ff7a02;stop-opacity:1;" />
    </linearGradient>
    <linearGradient
       id="linearGradient6505">
      <stop
         style="stop-color:#ffffff;stop-opacity:1;"
         offset="0"
         id="stop6507" />
      <stop
         style="stop-color:#c8c8c8;stop-opacity:1;"
         offset="1"
         id="stop6509" />
    </linearGradient>
    <inkscape:perspective
       sodipodi:type="inkscape:persp3d"
       inkscape:vp_x="0 : 526.18109 : 1"
       inkscape:vp_y="0 : 1000 : 0"
       inkscape:vp_z="744.09448 : 526.18109 : 1"
       inkscape:persp3d-origin="372.04724 : 350.78739 : 1"
       id="perspective5907" />
    <inkscape:perspective
       id="perspective5981"
       inkscape:persp3d-origin="0.5 : 0.33333333 : 1"
       inkscape:vp_z="1 : 0.5 : 1"
       inkscape:vp_y="0 : 1000 : 0"
       inkscape:vp_x="0 : 0.5 : 1"
       sodipodi:type="inkscape:persp3d" />
    <linearGradient
       inkscape:collect="always"
       xlink:href="#linearGradient6505"
       id="linearGradient6511"
       x1="2"
       y1="1.980755"
       x2="14.215727"
       y2="14.057038"
       gradientUnits="userSpaceOnUse"
       gradientTransform="matrix(0.83627663,0,0,1,0.32744675,0)" />
    <linearGradient
       inkscape:collect="always"
       xlink:href="#linearGradient6505"
       id="linearGradient6596"
       gradientUnits="userSpaceOnUse"
       gradientTransform="matrix(-0.83627663,0,0,1,15.672553,0)"
       x1="16.349319"
       y1="1.980755"
       x2="1.9999996"
       y2="14.051512" />
    <inkscape:perspective
       id="perspective6764"
       inkscape:persp3d-origin="0.5 : 0.33333333 : 1"
       inkscape:vp_z="1 : 0.5 : 1"
       inkscape:vp_y="0 : 1000 : 0"
       inkscape:vp_x="0 : 0.5 : 1"
       sodipodi:type="inkscape:persp3d" />
    <linearGradient
       inkscape:collect="always"
       xlink:href="#linearGradient6505"
       id="linearGradient6784"
       x1="2"
       y1="8"
       x2="6.5"
       y2="8"
       gradientUnits="userSpaceOnUse" />
    <linearGradient
       inkscape:collect="always"
       xlink:href="#linearGradient5190"
       id="linearGradient6787"
       gradientUnits="userSpaceOnUse"
       x1="8"
       y1="2"
       x2="8"
       y2="14"
       gradientTransform="matrix(1.375,0,0,1.375,0,-6)" />
    <linearGradient
       inkscape:collect="always"
       xlink:href="#linearGradient6111"
       id="linearGradient6099"
       gradientUnits="userSpaceOnUse"
       x1="2"
       y1="2"
       x2="14"
       y2="14"
       gradientTransform="matrix(1.375,0,0,1.375,22,-6)" />
    <linearGradient
       inkscape:collect="always"
       xlink:href="#linearGradient6117"
       id="linearGradient6105"
       gradientUnits="userSpaceOnUse"
       gradientTransform="matrix(1.375,0,0,1.375,44,-6)"
       x1="2"
       y1="2"
       x2="14"
       y2="14" />
  </defs>
  <sodipodi:namedview
     id="base"
     pagecolor="#ffffff"
     bordercolor="#666666"
     borderopacity="1.0"
     inkscape:pageopacity="0.0"
     inkscape:pageshadow="2"
     inkscape:zoom="10"
     inkscape:cx="-2.723554"
     inkscape:cy="7.6011549"
     inkscape:document-units="px"
     inkscape:current-layer="layer4"
     showgrid="false"
     inkscape:window-width="1280"
     inkscape:window-height="749"
     inkscape:window-x="0"
     inkscape:window-y="26"
     inkscape:window-maximized="1"
     inkscape:snap-page="true" />
  <metadata
     id="metadata5904">
    <rdf:RDF>
      <cc:Work
         rdf:about="">
        <dc:format>image/svg+xml</dc:format>
        <dc:type
           rdf:resource="http://purl.org/dc/dcmitype/StillImage" />
        <dc:title />
      </cc:Work>
    </rdf:RDF>
  </metadata>
  <g
     inkscape:groupmode="layer"
     id="layer4"
     inkscape:label="层"
     style="display:inline"
     transform="translate(0,6)">
    <path
       id="path6095"
       d="m 26.125,-3.25 c -0.76175,0 -1.375,0.61325 -1.375,1.375 l 0,13.75 c 0,0.76175 0.61325,1.375 1.375,1.375 l 3.4375,0 c 0.76175,0 1.375,-0.61325 1.375,-1.375 l 0,-13.75 c 0,-0.76175 -0.61325,-1.375 -1.375,-1.375 l -3.4375,0 z m 10.3125,0 c -0.76175,0 -1.375,0.61325 -1.375,1.375 l 0,13.75 c 0,0.76175 0.61325,1.375 1.375,1.375 l 3.4375,0 c 0.76175,0 1.375,-0.61325 1.375,-1.375 l 0,-13.75 c 0,-0.76175 -0.61325,-1.375 -1.375,-1.375 l -3.4375,0 z"
       style="color:#000000;fill:url(#linearGradient6099);fill-opacity:1;fill-rule:nonzero;stroke:none;stroke-width:0.5;marker:none;visibility:visible;display:inline;overflow:visible;enable-background:accumulate" />
    <path
       style="color:#000000;fill:url(#linearGradient6105);fill-opacity:1;fill-rule:nonzero;stroke:none;stroke-width:0.5;marker:none;visibility:visible;display:inline;overflow:visible;enable-background:accumulate"
       d="m 48.125,-3.25 c -0.76175,0 -1.375,0.61325 -1.375,1.375 l 0,13.75 c 0,0.76175 0.61325,1.375 1.375,1.375 l 3.4375,0 c 0.76175,0 1.375,-0.61325 1.375,-1.375 l 0,-13.75 c 0,-0.76175 -0.61325,-1.375 -1.375,-1.375 l -3.4375,0 z m 10.3125,0 c -0.76175,0 -1.375,0.61325 -1.375,1.375 l 0,13.75 c 0,0.76175 0.61325,1.375 1.375,1.375 l 3.4375,0 c 0.76175,0 1.375,-0.61325 1.375,-1.375 l 0,-13.75 c 0,-0.76175 -0.61325,-1.375 -1.375,-1.375 l -3.4375,0 z"
       id="path6101" />
    <path
       id="path6107"
       d="m 70.125,-3.25 c -0.76175,0 -1.375,0.61325 -1.375,1.375 l 0,13.75 c 0,0.76175 0.61325,1.375 1.375,1.375 l 3.4375,0 c 0.76175,0 1.375,-0.61325 1.375,-1.375 l 0,-13.75 c 0,-0.76175 -0.61325,-1.375 -1.375,-1.375 l -3.4375,0 z m 10.3125,0 c -0.76175,0 -1.375,0.61325 -1.375,1.375 l 0,13.75 c 0,0.76175 0.61325,1.375 1.375,1.375 l 3.4375,0 c 0.76175,0 1.375,-0.61325 1.375,-1.375 l 0,-13.75 c 0,-0.76175 -0.61325,-1.375 -1.375,-1.375 l -3.4375,0 z"
       style="opacity:0.6;color:#000000;fill:#878787;fill-opacity:1;fill-rule:nonzero;stroke:none;stroke-width:0.5;marker:none;visibility:visible;display:inline;overflow:visible;enable-background:accumulate" />
    <rect
       style="opacity:0;color:#000000;fill:#ffa831;fill-opacity:1;fill-rule:nonzero;stroke:none;stroke-width:0.5;marker:none;visibility:visible;display:inline;overflow:visible;enable-background:accumulate"
       id="rect3856"
       width="88"
       height="22"
       x="0"
       y="-6" />
    <path
       id="path4187"
       d="m 4.125,-3.25 c -0.76175,0 -1.375,0.61325 -1.375,1.375 l 0,13.75 c 0,0.76175 0.61325,1.375 1.375,1.375 l 3.4375,0 c 0.76175,0 1.375,-0.61325 1.375,-1.375 l 0,-13.75 c 0,-0.76175 -0.61325,-1.375 -1.375,-1.375 l -3.4375,0 z m 10.3125,0 c -0.76175,0 -1.375,0.61325 -1.375,1.375 l 0,13.75 c 0,0.76175 0.61325,1.375 1.375,1.375 l 3.4375,0 c 0.76175,0 1.375,-0.61325 1.375,-1.375 l 0,-13.75 c 0,-0.76175 -0.61325,-1.375 -1.375,-1.375 l -3.4375,0 z"
       style="color:#000000;fill:url(#linearGradient6787);fill-opacity:1;fill-rule:nonzero;stroke:none;stroke-width:0.50000000000000000;marker:none;visibility:visible;display:inline;overflow:visible;enable-background:accumulate;opacity:0.8" />
  </g>
  <g
     inkscape:groupmode="layer"
     id="layer6"
     inkscape:label="outline"
     transform="translate(0,6)"
     style="display:inline">
    <path
       style="font-size:medium;font-style:normal;font-variant:normal;font-weight:normal;font-stretch:normal;text-indent:0;text-align:start;text-decoration:none;line-height:normal;letter-spacing:normal;word-spacing:normal;text-transform:none;direction:ltr;block-progression:tb;writing-mode:lr-tb;text-anchor:start;opacity:0.59999999999999998;color:#000000;fill:#575757;fill-opacity:1;fill-rule:nonzero;stroke:none;stroke-width:2;marker:none;visibility:visible;display:inline;overflow:visible;enable-background:accumulate;font-family:AlArabiya;-inkscape-font-specification:AlArabiya"
       d="m 4.125,-4.25 c -1.2984528,0 -2.375,1.076547 -2.375,2.375 l 0,13.75 c 0,1.298453 1.0765472,2.375 2.375,2.375 l 3.4375,0 c 1.2984528,0 2.375,-1.076547 2.375,-2.375 l 0,-13.75 c 0,-1.298453 -1.0765472,-2.375 -2.375,-2.375 l -3.4375,0 z m 10.3125,0 c -1.298453,0 -2.375,1.076547 -2.375,2.375 l 0,13.75 c 0,1.298453 1.076547,2.375 2.375,2.375 l 3.4375,0 c 1.298453,0 2.375,-1.076547 2.375,-2.375 l 0,-13.75 c 0,-1.298453 -1.076547,-2.375 -2.375,-2.375 l -3.4375,0 z m -10.3125,1 3.4375,0 c 0.76175,0 1.375,0.61325 1.375,1.375 l 0,13.75 c 0,0.76175 -0.61325,1.375 -1.375,1.375 l -3.4375,0 C 3.36325,13.25 2.75,12.63675 2.75,11.875 l 0,-13.75 c 0,-0.76175 0.61325,-1.375 1.375,-1.375 z m 10.3125,0 3.4375,0 c 0.76175,0 1.375,0.61325 1.375,1.375 l 0,13.75 c 0,0.76175 -0.61325,1.375 -1.375,1.375 l -3.4375,0 c -0.76175,0 -1.375,-0.61325 -1.375,-1.375 l 0,-13.75 c 0,-0.76175 0.61325,-1.375 1.375,-1.375 z"
       id="path4700" />
    <path
       id="path4712"
       d="m 26.125,-4.25 c -1.298453,0 -2.375,1.076547 -2.375,2.375 l 0,13.75 c 0,1.298453 1.076547,2.375 2.375,2.375 l 3.4375,0 c 1.298453,0 2.375,-1.076547 2.375,-2.375 l 0,-13.75 c 0,-1.298453 -1.076547,-2.375 -2.375,-2.375 l -3.4375,0 z m 10.3125,0 c -1.298453,0 -2.375,1.076547 -2.375,2.375 l 0,13.75 c 0,1.298453 1.076547,2.375 2.375,2.375 l 3.4375,0 c 1.298453,0 2.375,-1.076547 2.375,-2.375 l 0,-13.75 c 0,-1.298453 -1.076547,-2.375 -2.375,-2.375 l -3.4375,0 z m -10.3125,1 3.4375,0 c 0.76175,0 1.375,0.61325 1.375,1.375 l 0,13.75 c 0,0.76175 -0.61325,1.375 -1.375,1.375 l -3.4375,0 c -0.76175,0 -1.375,-0.61325 -1.375,-1.375 l 0,-13.75 c 0,-0.76175 0.61325,-1.375 1.375,-1.375 z m 10.3125,0 3.4375,0 c 0.76175,0 1.375,0.61325 1.375,1.375 l 0,13.75 c 0,0.76175 -0.61325,1.375 -1.375,1.375 l -3.4375,0 c -0.76175,0 -1.375,-0.61325 -1.375,-1.375 l 0,-13.75 c 0,-0.76175 0.61325,-1.375 1.375,-1.375 z"
       style="font-size:medium;font-style:normal;font-variant:normal;font-weight:normal;font-stretch:normal;text-indent:0;text-align:start;text-decoration:none;line-height:normal;letter-spacing:normal;word-spacing:normal;text-transform:none;direction:ltr;block-progression:tb;writing-mode:lr-tb;text-anchor:start;opacity:0.59999999999999998;color:#000000;fill:#f35b00;fill-opacity:1;fill-rule:nonzero;stroke:none;stroke-width:2;marker:none;visibility:visible;display:inline;overflow:visible;enable-background:accumulate;font-family:AlArabiya;-inkscape-font-specification:AlArabiya" />
    <path
       style="font-size:medium;font-style:normal;font-variant:normal;font-weight:normal;font-stretch:normal;text-indent:0;text-align:start;text-decoration:none;line-height:normal;letter-spacing:normal;word-spacing:normal;text-transform:none;direction:ltr;block-progression:tb;writing-mode:lr-tb;text-anchor:start;opacity:0.59999999999999998;color:#000000;fill:#cc0000;fill-opacity:1;fill-rule:nonzero;stroke:none;stroke-width:2;marker:none;visibility:visible;display:inline;overflow:visible;enable-background:accumulate;font-family:AlArabiya;-inkscape-font-specification:AlArabiya"
       d="m 48.125,-4.25 c -1.298453,0 -2.375,1.076547 -2.375,2.375 l 0,13.75 c 0,1.298453 1.076547,2.375 2.375,2.375 l 3.4375,0 c 1.298453,0 2.375,-1.076547 2.375,-2.375 l 0,-13.75 c 0,-1.298453 -1.076547,-2.375 -2.375,-2.375 l -3.4375,0 z m 10.3125,0 c -1.298453,0 -2.375,1.076547 -2.375,2.375 l 0,13.75 c 0,1.298453 1.076547,2.375 2.375,2.375 l 3.4375,0 c 1.298453,0 2.375,-1.076547 2.375,-2.375 l 0,-13.75 c 0,-1.298453 -1.076547,-2.375 -2.375,-2.375 l -3.4375,0 z m -10.3125,1 3.4375,0 c 0.76175,0 1.375,0.61325 1.375,1.375 l 0,13.75 c 0,0.76175 -0.61325,1.375 -1.375,1.375 l -3.4375,0 c -0.76175,0 -1.375,-0.61325 -1.375,-1.375 l 0,-13.75 c 0,-0.76175 0.61325,-1.375 1.375,-1.375 z m 10.3125,0 3.4375,0 c 0.76175,0 1.375,0.61325 1.375,1.375 l 0,13.75 c 0,0.76175 -0.61325,1.375 -1.375,1.375 l -3.4375,0 c -0.76175,0 -1.375,-0.61325 -1.375,-1.375 l 0,-13.75 c 0,-0.76175 0.61325,-1.375 1.375,-1.375 z"
       id="path4714" />
  </g>
</svg>
